<mxfile host="app.diagrams.net" modified="2024-08-29T16:24:00.510Z" agent="Mozilla/5.0 (X11; Ubuntu; Linux x86_64; rv:129.0) Gecko/20100101 Firefox/129.0" version="23.1.5" etag="2VqLmqEVuQvt4hAuWH8z" type="github">
  <diagram name="Page-1" id="0pCMVxAeOzDlxkRY8xR7">
    <mxGraphModel>
      <root>
        <mxCell id="0" />
        <mxCell id="1" parent="0" />
      </root>
    </mxGraphModel>
  </diagram>
</mxfile>
